<svg width="18" height="18" viewBox="0 0 18 18" fill="none" xmlns="http://www.w3.org/2000/svg">
<path fill-rule="evenodd" clip-rule="evenodd" d="M0 5C0 2.239 2.239 0 5 0H13C15.761 0 18 2.239 18 5V13C18 15.761 15.761 18 13 18H5C2.239 18 0 15.761 0 13V5ZM16 3C16 2.448 15.552 2 15 2C14.448 2 14 2.448 14 3C14 3.552 14.448 4 15 4C15.552 4 16 3.552 16 3ZM14 9C14 6.239 11.761 4 9 4C6.239 4 4 6.239 4 9C4 11.761 6.239 14 9 14C11.761 14 14 11.761 14 9ZM6.87868 6.87868C7.44129 6.31607 8.20435 6 9 6C9.79565 6 10.5587 6.31607 11.1213 6.87868C11.6839 7.44129 12 8.20435 12 9C12 9.79565 11.6839 10.5587 11.1213 11.1213C10.5587 11.6839 9.79565 12 9 12C8.20435 12 7.44129 11.6839 6.87868 11.1213C6.31607 10.5587 6 9.79565 6 9C6 8.20435 6.31607 7.44129 6.87868 6.87868Z" fill="white"/>
</svg>
