<svg width="24" height="24" viewBox="0 0 24 24" fill="none" xmlns="http://www.w3.org/2000/svg">
<path fill-rule="evenodd" clip-rule="evenodd" d="M3 7C3 4.791 4.791 3 7 3H17C19.209 3 21 4.791 21 7V17C21 19.209 19.209 21 17 21H7C4.791 21 3 19.209 3 17V7ZM10.021 16.886C14.564 16.886 17.05 13.114 17.05 9.857V9.514C17.479 9.171 17.907 8.743 18.252 8.227C17.738 8.485 17.309 8.57 16.795 8.656C17.309 8.314 17.738 7.885 17.909 7.285C17.48 7.542 16.966 7.799 16.366 7.885C15.937 7.371 15.252 7.114 14.566 7.114C13.194 7.114 12.08 8.229 12.08 9.6C12.08 9.74154 12.1061 9.8573 12.1295 9.96131C12.1486 10.0462 12.166 10.1232 12.166 10.2C10.109 10.115 8.309 9.086 7.109 7.629C6.852 7.972 6.766 8.4 6.766 8.829C6.766 9.686 7.194 10.372 7.88 10.972C7.452 10.886 7.109 10.8 6.766 10.629C6.766 11.829 7.623 12.772 8.737 13.029C8.48 13.115 8.308 13.115 8.05101 13.115H8.051C8.01532 13.115 7.96483 13.1002 7.90575 13.0829C7.82244 13.0584 7.72205 13.029 7.622 13.029C7.965 13.972 8.822 14.743 9.936 14.743C9.079 15.343 7.964 15.772 6.85 15.772H6.25C7.364 16.457 8.65 16.886 10.021 16.886Z" fill="#251F24"/>
</svg>
