<svg width="18" height="18" viewBox="0 0 18 18" fill="none" xmlns="http://www.w3.org/2000/svg">
<path fill-rule="evenodd" clip-rule="evenodd" d="M0 4C0 1.791 1.791 0 4 0H14C16.209 0 18 1.791 18 4V14C18 16.209 16.209 18 14 18H4C1.791 18 0 16.209 0 14V4ZM7.021 13.886C11.564 13.886 14.05 10.114 14.05 6.857V6.514C14.479 6.171 14.907 5.743 15.252 5.227C14.738 5.485 14.309 5.57 13.795 5.656C14.309 5.314 14.738 4.885 14.909 4.285C14.48 4.542 13.966 4.799 13.366 4.885C12.937 4.371 12.252 4.114 11.566 4.114C10.194 4.114 9.08 5.229 9.08 6.6C9.08 6.74154 9.10609 6.8573 9.12953 6.96131C9.14864 7.04615 9.166 7.12318 9.166 7.2C7.109 7.115 5.309 6.086 4.109 4.629C3.852 4.972 3.766 5.4 3.766 5.829C3.766 6.686 4.194 7.372 4.88 7.972C4.452 7.886 4.109 7.8 3.766 7.629C3.766 8.829 4.623 9.772 5.737 10.029C5.48 10.115 5.308 10.115 5.05101 10.115H5.051C5.01532 10.115 4.96483 10.1002 4.90575 10.0829C4.82244 10.0584 4.72205 10.029 4.622 10.029C4.965 10.972 5.822 11.743 6.936 11.743C6.079 12.343 4.964 12.772 3.85 12.772H3.25C4.364 13.457 5.65 13.886 7.021 13.886Z" fill="white"/>
</svg>
